<svg version="1.1" id="圖層_1" xmlns="http://www.w3.org/2000/svg" x="0" y="0" viewBox="0 0 100 100" xml:space="preserve" style="margin: initial; display: block; shape-rendering: auto; background: transparent;" preserveAspectRatio="xMidYMid" width="250" height="250"><g class="ldl-scale" style="transform-origin: 50% 50%; transform: rotate(45deg) scale(0.8, 0.8);"><g class="ldl-ani" style="transform-box: view-box;"><g class="ldl-layer"><g class="ldl-ani" style="transform-box: view-box; opacity: 1; transform-origin: 50px 50px; transform: matrix3d(0.91, 0, 0, 0, 0, 0.91, 0, 0, 0, 0, 0.91, 0, 0, 0, 0, 1); animation: 1s linear -0.583333s infinite normal forwards running animate;"><path fill="none" stroke="#e15b64" stroke-width="3.621" stroke-linecap="round" stroke-miterlimit="10" d="M38.1 54.8l7.9 7.9" style="stroke: rgb(225, 91, 100);"></path></g></g><g class="ldl-layer"><g class="ldl-ani" style="transform-box: view-box; opacity: 1; transform-origin: 50px 50px; transform: matrix3d(0.91, 0, 0, 0, 0, 0.91, 0, 0, 0, 0, 0.91, 0, 0, 0, 0, 1); animation: 1s linear -0.666667s infinite normal forwards running animate;"><path stroke-width="3.621" stroke-linecap="round" stroke-miterlimit="10" fill="none" stroke="#f8b26a" d="M38.9 45.3l16 16" style="stroke: rgb(248, 178, 106);"></path></g></g><g class="ldl-layer"><g class="ldl-ani" style="transform-box: view-box; opacity: 1; transform-origin: 50px 50px; transform: matrix3d(0.91, 0, 0, 0, 0, 0.91, 0, 0, 0, 0, 0.91, 0, 0, 0, 0, 1); animation: 1s linear -0.75s infinite normal forwards running animate;"><path fill="none" stroke="#849b87" stroke-width="3.621" stroke-linecap="round" stroke-miterlimit="10" d="M45.9 40.8l13.7 13.7" style="stroke: rgb(132, 155, 135);"></path></g></g><g class="ldl-layer"><g class="ldl-ani" style="transform-box: view-box; opacity: 1; transform-origin: 50px 50px; transform: matrix3d(0.91, 0, 0, 0, 0, 0.91, 0, 0, 0, 0, 0.91, 0, 0, 0, 0, 1); animation: 1s linear -0.833333s infinite normal forwards running animate;"><path fill="none" stroke="#77a4bd" stroke-width="3.621" stroke-linecap="round" stroke-miterlimit="10" d="M55.4 39.4l5.7 5.7" style="stroke: rgb(119, 164, 189);"></path></g></g><g class="ldl-layer"><g class="ldl-ani" style="transform-box: view-box; opacity: 1; transform-origin: 50px 50px; transform: matrix3d(0.91, 0, 0, 0, 0, 0.91, 0, 0, 0, 0, 0.91, 0, 0, 0, 0, 1); animation: 1s linear -0.916667s infinite normal forwards running animate;"><path d="M91.8 34.5c-.7-.7-1.9-.7-2.6 0-6.2 6.2-15.4 3.4-25.2.5h-.1c-10.3-3.1-21-6.3-28.5 1.2S31 54.5 34 64.9v.1c2.8 9.7 5.4 18.8-.7 24.4-.7.7-.8 1.8-.1 2.6.4.4.8.6 1.3.6.4 0 .9-.2 1.2-.5 7.7-7.1 4.7-17.8 1.7-28V64c-2.8-9.8-5.5-19.1.5-25.2 6-6 15.2-3.2 24.9-.3h.1c5.4 1.6 11.2 3.4 16.6 3.4 4.5 0 8.7-1.2 12.3-4.7.7-.8.7-2 0-2.7z" fill="#ccc" style="fill: rgb(255, 255, 255);"></path></g></g><g class="ldl-layer"><g class="ldl-ani" style="transform-box: view-box; opacity: 1; transform-origin: 50px 50px; transform: matrix3d(0.91, 0, 0, 0, 0, 0.91, 0, 0, 0, 0, 0.91, 0, 0, 0, 0, 1); animation: 1s linear -1s infinite normal forwards running animate;"><path d="M65.3 36.3v-.1c-2.9-9.8-5.7-19 .5-25.2l.3-.3.1-.1c.7-.7.8-1.8.1-2.6-.7-.7-1.8-.8-2.6-.1l-.1.1c-.1.1-.3.2-.4.4-7.7 7.7-4.3 18.9-1.4 28.8v.1c2.9 9.7 5.7 18.9-.3 24.9s-15.3 3.4-25.2.5h-.1c-10.3-3-20.9-6-28 1.7-.7.7-.6 1.9.1 2.6.3.3.8.5 1.2.5.5 0 1-.2 1.3-.6 5.6-6.1 14.7-3.5 24.4-.7h.1c5.6 1.6 11.3 3.2 16.5 3.2 4.5 0 8.7-1.2 12.2-4.7 7.5-7.4 4.4-18.1 1.3-28.4z" fill="#ccc" style="fill: rgb(255, 255, 255);"></path></g></g><metadata xmlns:d="https://loading.io/stock/"><d:name>dna</d:name><d:tags>dna,genetic,chromosome,rna,cell,inheritance</d:tags><d:license>by</d:license><d:slug>t3p52z</d:slug></metadata></g></g><style type="text/css">@keyframes animate { 0.00% {transform: translate(0.00px,0.00px) rotate(0.00deg) scale(0.91, 0.91) skew(0deg, 0.00deg) ;opacity: 1.00;}4.00% {transform: translate(0.00px,0.00px) rotate(0.00deg) scale(0.91, 0.91) ;}8.00% {animation-timing-function: cubic-bezier(0.69,0.60,0.35,0.27);transform: translate(0.00px,0.00px) rotate(0.00deg) scale(0.91, 0.91) ;}14.00% {transform: translate(0.00px,0.00px) rotate(0.00deg) scale(0.93, 0.93) ;}18.00% {transform: translate(0.00px,0.00px) rotate(0.00deg) scale(0.94, 0.94) ;}22.00% {animation-timing-function: cubic-bezier(0.67,0.66,0.34,0.33);transform: translate(0.00px,0.00px) rotate(0.00deg) scale(0.96, 0.96) ;}26.00% {transform: translate(0.00px,0.00px) rotate(0.00deg) scale(0.97, 0.97) ;}30.00% {transform: translate(0.00px,0.00px) rotate(0.00deg) scale(0.99, 0.99) ;}34.00% {animation-timing-function: cubic-bezier(0.65,0.71,0.32,0.38);transform: translate(0.00px,0.00px) rotate(0.00deg) scale(1.01, 1.01) ;}40.00% {animation-timing-function: cubic-bezier(0.64,0.74,0.31,0.41);transform: translate(0.00px,0.00px) rotate(0.00deg) scale(1.02, 1.02) ;}46.00% {animation-timing-function: cubic-bezier(0.60,0.91,0.23,0.63);transform: translate(0.00px,0.00px) rotate(0.00deg) scale(1.03, 1.03) ;}50.00% {transform: translate(0.00px,0.00px) rotate(0.00deg) scale(1.03, 1.03) ;}54.00% {transform: translate(0.00px,0.00px) rotate(0.00deg) scale(1.03, 1.03) ;}58.00% {animation-timing-function: cubic-bezier(0.69,0.60,0.35,0.27);transform: translate(0.00px,0.00px) rotate(0.00deg) scale(1.03, 1.03) ;}64.00% {transform: translate(0.00px,0.00px) rotate(0.00deg) scale(1.01, 1.01) ;}68.00% {transform: translate(0.00px,0.00px) rotate(0.00deg) scale(1.00, 1.00) ;}72.00% {animation-timing-function: cubic-bezier(0.67,0.66,0.34,0.33);transform: translate(0.00px,0.00px) rotate(0.00deg) scale(0.98, 0.98) ;}76.00% {animation-timing-function: cubic-bezier(0.66,0.68,0.33,0.35);transform: translate(0.00px,0.00px) rotate(0.00deg) scale(0.97, 0.97) ;}82.00% {animation-timing-function: cubic-bezier(0.65,0.71,0.32,0.38);transform: translate(0.00px,0.00px) rotate(0.00deg) scale(0.94, 0.94) ;}88.00% {animation-timing-function: cubic-bezier(0.65,0.73,0.31,0.40);transform: translate(0.00px,0.00px) rotate(0.00deg) scale(0.92, 0.92) ;}94.00% {animation-timing-function: cubic-bezier(0.63,0.80,0.28,0.48);transform: translate(0.00px,0.00px) rotate(0.00deg) scale(0.91, 0.91) ;}100.00% {animation-timing-function: cubic-bezier(0.63,0.80,0.28,0.48);transform: translate(0.00px,0.00px) rotate(0.00deg) scale(0.91, 0.91) ;} }</style><!-- [ldio] generated by https://loading.io --></svg>